<mxfile host="app.diagrams.net" modified="2023-03-04T12:23:11.345Z" agent="5.0 (Macintosh; Intel Mac OS X 10_15_7) AppleWebKit/537.36 (KHTML, like Gecko) Chrome/109.0.0.0 Safari/537.36" etag="XeGRhWCIRCFrABSaq4Zh" version="21.0.2" type="github">
  <diagram id="6a731a19-8d31-9384-78a2-239565b7b9f0" name="Page-1">
    <mxGraphModel dx="1122" dy="701" grid="1" gridSize="10" guides="1" tooltips="1" connect="1" arrows="1" fold="1" page="1" pageScale="1" pageWidth="1169" pageHeight="827" background="none" math="0" shadow="0">
      <root>
        <mxCell id="0" />
        <mxCell id="1" parent="0" />
        <mxCell id="Pkom4mgUufGUyZToT8Yp-150" value="应用登录" style="swimlane;childLayout=stackLayout;resizeParent=1;resizeParentMax=0;startSize=20;html=1;" vertex="1" parent="1">
          <mxGeometry x="180" y="110" width="840" height="770" as="geometry" />
        </mxCell>
        <mxCell id="Pkom4mgUufGUyZToT8Yp-151" value="教育门户" style="swimlane;startSize=20;html=1;" vertex="1" parent="Pkom4mgUufGUyZToT8Yp-150">
          <mxGeometry y="20" width="160" height="750" as="geometry" />
        </mxCell>
        <mxCell id="Pkom4mgUufGUyZToT8Yp-152" value="应用客户端" style="swimlane;startSize=20;html=1;" vertex="1" parent="Pkom4mgUufGUyZToT8Yp-150">
          <mxGeometry x="160" y="20" width="140" height="750" as="geometry" />
        </mxCell>
        <mxCell id="Pkom4mgUufGUyZToT8Yp-153" value="应用服务端" style="swimlane;startSize=20;html=1;" vertex="1" parent="Pkom4mgUufGUyZToT8Yp-150">
          <mxGeometry x="300" y="20" width="140" height="750" as="geometry" />
        </mxCell>
        <mxCell id="Pkom4mgUufGUyZToT8Yp-160" value="教育后台网关" style="swimlane;startSize=20;html=1;" vertex="1" parent="Pkom4mgUufGUyZToT8Yp-150">
          <mxGeometry x="440" y="20" width="130" height="750" as="geometry" />
        </mxCell>
        <mxCell id="Pkom4mgUufGUyZToT8Yp-158" value="教育后台服务" style="swimlane;startSize=20;html=1;" vertex="1" parent="Pkom4mgUufGUyZToT8Yp-150">
          <mxGeometry x="570" y="20" width="140" height="750" as="geometry" />
        </mxCell>
        <mxCell id="Pkom4mgUufGUyZToT8Yp-162" value="教育基座" style="swimlane;startSize=20;html=1;" vertex="1" parent="Pkom4mgUufGUyZToT8Yp-150">
          <mxGeometry x="710" y="20" width="130" height="750" as="geometry" />
        </mxCell>
        <mxCell id="Pkom4mgUufGUyZToT8Yp-168" value="应用发布" style="swimlane;startSize=20;horizontal=0;html=1;movable=1;resizable=1;rotatable=1;deletable=1;editable=1;locked=0;connectable=1;" vertex="1" parent="1">
          <mxGeometry x="160" y="150" width="860" height="130" as="geometry" />
        </mxCell>
        <mxCell id="Pkom4mgUufGUyZToT8Yp-172" style="edgeStyle=orthogonalEdgeStyle;rounded=0;orthogonalLoop=1;jettySize=auto;html=1;entryX=1;entryY=0.5;entryDx=0;entryDy=0;entryPerimeter=0;" edge="1" parent="Pkom4mgUufGUyZToT8Yp-168" source="Pkom4mgUufGUyZToT8Yp-170" target="Pkom4mgUufGUyZToT8Yp-171">
          <mxGeometry relative="1" as="geometry" />
        </mxCell>
        <mxCell id="Pkom4mgUufGUyZToT8Yp-170" value="应用发布" style="strokeWidth=2;html=1;shape=mxgraph.flowchart.terminator;whiteSpace=wrap;" vertex="1" parent="Pkom4mgUufGUyZToT8Yp-168">
          <mxGeometry x="760" y="20" width="85" height="30" as="geometry" />
        </mxCell>
        <mxCell id="Pkom4mgUufGUyZToT8Yp-171" value="添加应用" style="strokeWidth=2;html=1;shape=mxgraph.flowchart.terminator;whiteSpace=wrap;" vertex="1" parent="Pkom4mgUufGUyZToT8Yp-168">
          <mxGeometry x="617.5" y="20" width="85" height="30" as="geometry" />
        </mxCell>
        <mxCell id="Pkom4mgUufGUyZToT8Yp-173" value="配置应用ID，Key值以及回调url,并缓存redis" style="text;html=1;strokeColor=none;fillColor=none;align=center;verticalAlign=middle;whiteSpace=wrap;rounded=0;" vertex="1" parent="Pkom4mgUufGUyZToT8Yp-168">
          <mxGeometry x="600" y="60" width="120" height="40" as="geometry" />
        </mxCell>
        <mxCell id="Pkom4mgUufGUyZToT8Yp-174" value="应用跳转（未登录情况）" style="swimlane;startSize=20;horizontal=0;html=1;movable=1;resizable=1;rotatable=1;deletable=1;editable=1;locked=0;connectable=1;" vertex="1" parent="1">
          <mxGeometry x="160" y="280" width="860" height="600" as="geometry" />
        </mxCell>
        <mxCell id="Pkom4mgUufGUyZToT8Yp-182" style="edgeStyle=orthogonalEdgeStyle;rounded=0;orthogonalLoop=1;jettySize=auto;html=1;entryX=0.5;entryY=0;entryDx=0;entryDy=0;entryPerimeter=0;" edge="1" parent="Pkom4mgUufGUyZToT8Yp-174" source="Pkom4mgUufGUyZToT8Yp-179" target="Pkom4mgUufGUyZToT8Yp-180">
          <mxGeometry relative="1" as="geometry" />
        </mxCell>
        <mxCell id="Pkom4mgUufGUyZToT8Yp-179" value="点击应用" style="strokeWidth=2;html=1;shape=mxgraph.flowchart.terminator;whiteSpace=wrap;" vertex="1" parent="Pkom4mgUufGUyZToT8Yp-174">
          <mxGeometry x="60" y="10" width="85" height="30" as="geometry" />
        </mxCell>
        <mxCell id="Pkom4mgUufGUyZToT8Yp-183" style="edgeStyle=orthogonalEdgeStyle;rounded=0;orthogonalLoop=1;jettySize=auto;html=1;entryX=0;entryY=0.5;entryDx=0;entryDy=0;entryPerimeter=0;" edge="1" parent="Pkom4mgUufGUyZToT8Yp-174" source="Pkom4mgUufGUyZToT8Yp-180" target="Pkom4mgUufGUyZToT8Yp-181">
          <mxGeometry relative="1" as="geometry" />
        </mxCell>
        <mxCell id="Pkom4mgUufGUyZToT8Yp-184" value="应用appid" style="edgeLabel;html=1;align=center;verticalAlign=middle;resizable=0;points=[];" vertex="1" connectable="0" parent="Pkom4mgUufGUyZToT8Yp-183">
          <mxGeometry x="-0.055" relative="1" as="geometry">
            <mxPoint x="-1" as="offset" />
          </mxGeometry>
        </mxCell>
        <mxCell id="Pkom4mgUufGUyZToT8Yp-180" value="获取state" style="strokeWidth=2;html=1;shape=mxgraph.flowchart.terminator;whiteSpace=wrap;" vertex="1" parent="Pkom4mgUufGUyZToT8Yp-174">
          <mxGeometry x="60" y="60" width="85" height="30" as="geometry" />
        </mxCell>
        <mxCell id="Pkom4mgUufGUyZToT8Yp-186" style="edgeStyle=orthogonalEdgeStyle;rounded=0;orthogonalLoop=1;jettySize=auto;html=1;entryX=1;entryY=0.5;entryDx=0;entryDy=0;entryPerimeter=0;exitX=0.5;exitY=1;exitDx=0;exitDy=0;exitPerimeter=0;" edge="1" parent="Pkom4mgUufGUyZToT8Yp-174" source="Pkom4mgUufGUyZToT8Yp-181" target="Pkom4mgUufGUyZToT8Yp-185">
          <mxGeometry relative="1" as="geometry" />
        </mxCell>
        <mxCell id="Pkom4mgUufGUyZToT8Yp-189" value="返回state值" style="edgeLabel;html=1;align=center;verticalAlign=middle;resizable=0;points=[];" vertex="1" connectable="0" parent="Pkom4mgUufGUyZToT8Yp-186">
          <mxGeometry x="0.067" y="-4" relative="1" as="geometry">
            <mxPoint as="offset" />
          </mxGeometry>
        </mxCell>
        <mxCell id="Pkom4mgUufGUyZToT8Yp-181" value="验证应用id，并生成唯一state值" style="strokeWidth=2;html=1;shape=mxgraph.flowchart.terminator;whiteSpace=wrap;" vertex="1" parent="Pkom4mgUufGUyZToT8Yp-174">
          <mxGeometry x="467.5" y="55" width="110" height="40" as="geometry" />
        </mxCell>
        <mxCell id="Pkom4mgUufGUyZToT8Yp-188" style="edgeStyle=orthogonalEdgeStyle;rounded=0;orthogonalLoop=1;jettySize=auto;html=1;entryX=0;entryY=0.5;entryDx=0;entryDy=0;entryPerimeter=0;exitX=0.5;exitY=1;exitDx=0;exitDy=0;exitPerimeter=0;" edge="1" parent="Pkom4mgUufGUyZToT8Yp-174" source="Pkom4mgUufGUyZToT8Yp-185" target="Pkom4mgUufGUyZToT8Yp-187">
          <mxGeometry relative="1" as="geometry" />
        </mxCell>
        <mxCell id="Pkom4mgUufGUyZToT8Yp-190" value="redirect_url,appid,state" style="edgeLabel;html=1;align=center;verticalAlign=middle;resizable=0;points=[];" vertex="1" connectable="0" parent="Pkom4mgUufGUyZToT8Yp-188">
          <mxGeometry x="-0.028" y="1" relative="1" as="geometry">
            <mxPoint as="offset" />
          </mxGeometry>
        </mxCell>
        <mxCell id="Pkom4mgUufGUyZToT8Yp-185" value="用户登录" style="strokeWidth=2;html=1;shape=mxgraph.flowchart.terminator;whiteSpace=wrap;" vertex="1" parent="Pkom4mgUufGUyZToT8Yp-174">
          <mxGeometry x="60" y="110" width="85" height="30" as="geometry" />
        </mxCell>
        <mxCell id="Pkom4mgUufGUyZToT8Yp-192" style="edgeStyle=orthogonalEdgeStyle;rounded=0;orthogonalLoop=1;jettySize=auto;html=1;entryX=1;entryY=0.5;entryDx=0;entryDy=0;entryPerimeter=0;exitX=0.5;exitY=1;exitDx=0;exitDy=0;exitPerimeter=0;" edge="1" parent="Pkom4mgUufGUyZToT8Yp-174" source="Pkom4mgUufGUyZToT8Yp-187" target="Pkom4mgUufGUyZToT8Yp-191">
          <mxGeometry relative="1" as="geometry" />
        </mxCell>
        <mxCell id="Pkom4mgUufGUyZToT8Yp-193" value="返回code、appid、state" style="edgeLabel;html=1;align=center;verticalAlign=middle;resizable=0;points=[];" vertex="1" connectable="0" parent="Pkom4mgUufGUyZToT8Yp-192">
          <mxGeometry x="0.2526" y="1" relative="1" as="geometry">
            <mxPoint as="offset" />
          </mxGeometry>
        </mxCell>
        <mxCell id="Pkom4mgUufGUyZToT8Yp-187" value="生成code" style="strokeWidth=2;html=1;shape=mxgraph.flowchart.terminator;whiteSpace=wrap;" vertex="1" parent="Pkom4mgUufGUyZToT8Yp-174">
          <mxGeometry x="760" y="150" width="85" height="30" as="geometry" />
        </mxCell>
        <mxCell id="Pkom4mgUufGUyZToT8Yp-197" style="edgeStyle=orthogonalEdgeStyle;rounded=0;orthogonalLoop=1;jettySize=auto;html=1;" edge="1" parent="Pkom4mgUufGUyZToT8Yp-174" source="Pkom4mgUufGUyZToT8Yp-191" target="Pkom4mgUufGUyZToT8Yp-196">
          <mxGeometry relative="1" as="geometry" />
        </mxCell>
        <mxCell id="Pkom4mgUufGUyZToT8Yp-191" value="验证state值" style="strokeWidth=2;html=1;shape=mxgraph.flowchart.terminator;whiteSpace=wrap;" vertex="1" parent="Pkom4mgUufGUyZToT8Yp-174">
          <mxGeometry x="480" y="200" width="85" height="30" as="geometry" />
        </mxCell>
        <mxCell id="Pkom4mgUufGUyZToT8Yp-199" style="edgeStyle=orthogonalEdgeStyle;rounded=0;orthogonalLoop=1;jettySize=auto;html=1;entryX=0;entryY=0.5;entryDx=0;entryDy=0;entryPerimeter=0;" edge="1" parent="Pkom4mgUufGUyZToT8Yp-174" source="Pkom4mgUufGUyZToT8Yp-196" target="Pkom4mgUufGUyZToT8Yp-198">
          <mxGeometry relative="1" as="geometry" />
        </mxCell>
        <mxCell id="Pkom4mgUufGUyZToT8Yp-203" value="是" style="edgeLabel;html=1;align=center;verticalAlign=middle;resizable=0;points=[];" vertex="1" connectable="0" parent="Pkom4mgUufGUyZToT8Yp-199">
          <mxGeometry x="-0.1986" y="-2" relative="1" as="geometry">
            <mxPoint as="offset" />
          </mxGeometry>
        </mxCell>
        <mxCell id="Pkom4mgUufGUyZToT8Yp-229" style="edgeStyle=orthogonalEdgeStyle;rounded=0;orthogonalLoop=1;jettySize=auto;html=1;" edge="1" parent="Pkom4mgUufGUyZToT8Yp-174" source="Pkom4mgUufGUyZToT8Yp-196" target="Pkom4mgUufGUyZToT8Yp-226">
          <mxGeometry relative="1" as="geometry" />
        </mxCell>
        <mxCell id="Pkom4mgUufGUyZToT8Yp-230" value="否" style="edgeLabel;html=1;align=center;verticalAlign=middle;resizable=0;points=[];" vertex="1" connectable="0" parent="Pkom4mgUufGUyZToT8Yp-229">
          <mxGeometry x="-0.2852" y="1" relative="1" as="geometry">
            <mxPoint y="3" as="offset" />
          </mxGeometry>
        </mxCell>
        <mxCell id="Pkom4mgUufGUyZToT8Yp-196" value="是否有效" style="strokeWidth=2;html=1;shape=mxgraph.flowchart.decision;whiteSpace=wrap;" vertex="1" parent="Pkom4mgUufGUyZToT8Yp-174">
          <mxGeometry x="486.25" y="260" width="72.5" height="40" as="geometry" />
        </mxCell>
        <mxCell id="Pkom4mgUufGUyZToT8Yp-205" style="edgeStyle=orthogonalEdgeStyle;rounded=0;orthogonalLoop=1;jettySize=auto;html=1;" edge="1" parent="Pkom4mgUufGUyZToT8Yp-174" source="Pkom4mgUufGUyZToT8Yp-198" target="Pkom4mgUufGUyZToT8Yp-204">
          <mxGeometry relative="1" as="geometry" />
        </mxCell>
        <mxCell id="Pkom4mgUufGUyZToT8Yp-198" value="code换取userinfo" style="strokeWidth=2;html=1;shape=mxgraph.flowchart.terminator;whiteSpace=wrap;" vertex="1" parent="Pkom4mgUufGUyZToT8Yp-174">
          <mxGeometry x="620" y="265" width="85" height="30" as="geometry" />
        </mxCell>
        <mxCell id="Pkom4mgUufGUyZToT8Yp-208" style="edgeStyle=orthogonalEdgeStyle;rounded=0;orthogonalLoop=1;jettySize=auto;html=1;entryX=1;entryY=0.5;entryDx=0;entryDy=0;entryPerimeter=0;exitX=0.5;exitY=1;exitDx=0;exitDy=0;exitPerimeter=0;" edge="1" parent="Pkom4mgUufGUyZToT8Yp-174" source="Pkom4mgUufGUyZToT8Yp-204" target="Pkom4mgUufGUyZToT8Yp-207">
          <mxGeometry relative="1" as="geometry" />
        </mxCell>
        <mxCell id="Pkom4mgUufGUyZToT8Yp-204" value="code换userinfo" style="strokeWidth=2;html=1;shape=mxgraph.flowchart.terminator;whiteSpace=wrap;" vertex="1" parent="Pkom4mgUufGUyZToT8Yp-174">
          <mxGeometry x="760" y="265" width="85" height="30" as="geometry" />
        </mxCell>
        <mxCell id="Pkom4mgUufGUyZToT8Yp-210" style="edgeStyle=orthogonalEdgeStyle;rounded=0;orthogonalLoop=1;jettySize=auto;html=1;" edge="1" parent="Pkom4mgUufGUyZToT8Yp-174" source="Pkom4mgUufGUyZToT8Yp-207" target="Pkom4mgUufGUyZToT8Yp-209">
          <mxGeometry relative="1" as="geometry" />
        </mxCell>
        <mxCell id="Pkom4mgUufGUyZToT8Yp-227" style="edgeStyle=orthogonalEdgeStyle;rounded=0;orthogonalLoop=1;jettySize=auto;html=1;entryX=1;entryY=0.5;entryDx=0;entryDy=0;entryPerimeter=0;" edge="1" parent="Pkom4mgUufGUyZToT8Yp-174" source="Pkom4mgUufGUyZToT8Yp-207" target="Pkom4mgUufGUyZToT8Yp-226">
          <mxGeometry relative="1" as="geometry" />
        </mxCell>
        <mxCell id="Pkom4mgUufGUyZToT8Yp-231" value="否" style="edgeLabel;html=1;align=center;verticalAlign=middle;resizable=0;points=[];" vertex="1" connectable="0" parent="Pkom4mgUufGUyZToT8Yp-227">
          <mxGeometry x="-0.008" relative="1" as="geometry">
            <mxPoint x="1" as="offset" />
          </mxGeometry>
        </mxCell>
        <mxCell id="Pkom4mgUufGUyZToT8Yp-207" value="是否成功" style="strokeWidth=2;html=1;shape=mxgraph.flowchart.decision;whiteSpace=wrap;" vertex="1" parent="Pkom4mgUufGUyZToT8Yp-174">
          <mxGeometry x="626.25" y="325" width="72.5" height="40" as="geometry" />
        </mxCell>
        <mxCell id="Pkom4mgUufGUyZToT8Yp-212" style="edgeStyle=orthogonalEdgeStyle;rounded=0;orthogonalLoop=1;jettySize=auto;html=1;entryX=1;entryY=0.5;entryDx=0;entryDy=0;entryPerimeter=0;" edge="1" parent="Pkom4mgUufGUyZToT8Yp-174" source="Pkom4mgUufGUyZToT8Yp-209" target="Pkom4mgUufGUyZToT8Yp-211">
          <mxGeometry relative="1" as="geometry" />
        </mxCell>
        <mxCell id="Pkom4mgUufGUyZToT8Yp-213" value="state、token" style="edgeLabel;html=1;align=center;verticalAlign=middle;resizable=0;points=[];" vertex="1" connectable="0" parent="Pkom4mgUufGUyZToT8Yp-212">
          <mxGeometry x="0.2166" y="2" relative="1" as="geometry">
            <mxPoint x="13" y="-2" as="offset" />
          </mxGeometry>
        </mxCell>
        <mxCell id="Pkom4mgUufGUyZToT8Yp-209" value="生成token,根据appid获取回调url,并生成唯一state" style="strokeWidth=2;html=1;shape=mxgraph.flowchart.terminator;whiteSpace=wrap;" vertex="1" parent="Pkom4mgUufGUyZToT8Yp-174">
          <mxGeometry x="613.75" y="380" width="110" height="50" as="geometry" />
        </mxCell>
        <mxCell id="Pkom4mgUufGUyZToT8Yp-215" style="edgeStyle=orthogonalEdgeStyle;rounded=0;orthogonalLoop=1;jettySize=auto;html=1;entryX=0;entryY=0.5;entryDx=0;entryDy=0;entryPerimeter=0;exitX=0.5;exitY=1;exitDx=0;exitDy=0;exitPerimeter=0;" edge="1" parent="Pkom4mgUufGUyZToT8Yp-174" source="Pkom4mgUufGUyZToT8Yp-211" target="Pkom4mgUufGUyZToT8Yp-214">
          <mxGeometry relative="1" as="geometry" />
        </mxCell>
        <mxCell id="Pkom4mgUufGUyZToT8Yp-211" value="回调页面" style="strokeWidth=2;html=1;shape=mxgraph.flowchart.terminator;whiteSpace=wrap;" vertex="1" parent="Pkom4mgUufGUyZToT8Yp-174">
          <mxGeometry x="210" y="390" width="85" height="30" as="geometry" />
        </mxCell>
        <mxCell id="Pkom4mgUufGUyZToT8Yp-217" style="edgeStyle=orthogonalEdgeStyle;rounded=0;orthogonalLoop=1;jettySize=auto;html=1;" edge="1" parent="Pkom4mgUufGUyZToT8Yp-174" source="Pkom4mgUufGUyZToT8Yp-214" target="Pkom4mgUufGUyZToT8Yp-216">
          <mxGeometry relative="1" as="geometry" />
        </mxCell>
        <mxCell id="Pkom4mgUufGUyZToT8Yp-214" value="token换取userinfo" style="strokeWidth=2;html=1;shape=mxgraph.flowchart.terminator;whiteSpace=wrap;" vertex="1" parent="Pkom4mgUufGUyZToT8Yp-174">
          <mxGeometry x="350" y="440" width="85" height="30" as="geometry" />
        </mxCell>
        <mxCell id="Pkom4mgUufGUyZToT8Yp-219" style="edgeStyle=orthogonalEdgeStyle;rounded=0;orthogonalLoop=1;jettySize=auto;html=1;" edge="1" parent="Pkom4mgUufGUyZToT8Yp-174" source="Pkom4mgUufGUyZToT8Yp-216" target="Pkom4mgUufGUyZToT8Yp-218">
          <mxGeometry relative="1" as="geometry" />
        </mxCell>
        <mxCell id="Pkom4mgUufGUyZToT8Yp-216" value="验证state值" style="strokeWidth=2;html=1;shape=mxgraph.flowchart.terminator;whiteSpace=wrap;" vertex="1" parent="Pkom4mgUufGUyZToT8Yp-174">
          <mxGeometry x="486.25" y="440" width="85" height="30" as="geometry" />
        </mxCell>
        <mxCell id="Pkom4mgUufGUyZToT8Yp-221" style="edgeStyle=orthogonalEdgeStyle;rounded=0;orthogonalLoop=1;jettySize=auto;html=1;entryX=1;entryY=0.5;entryDx=0;entryDy=0;entryPerimeter=0;exitX=0.5;exitY=1;exitDx=0;exitDy=0;exitPerimeter=0;" edge="1" parent="Pkom4mgUufGUyZToT8Yp-174" source="Pkom4mgUufGUyZToT8Yp-218" target="Pkom4mgUufGUyZToT8Yp-220">
          <mxGeometry relative="1" as="geometry" />
        </mxCell>
        <mxCell id="Pkom4mgUufGUyZToT8Yp-222" value="userinfo" style="edgeLabel;html=1;align=center;verticalAlign=middle;resizable=0;points=[];" vertex="1" connectable="0" parent="Pkom4mgUufGUyZToT8Yp-221">
          <mxGeometry x="0.2148" y="2" relative="1" as="geometry">
            <mxPoint as="offset" />
          </mxGeometry>
        </mxCell>
        <mxCell id="Pkom4mgUufGUyZToT8Yp-218" value="获取userinfo" style="strokeWidth=2;html=1;shape=mxgraph.flowchart.terminator;whiteSpace=wrap;" vertex="1" parent="Pkom4mgUufGUyZToT8Yp-174">
          <mxGeometry x="626.25" y="440" width="85" height="30" as="geometry" />
        </mxCell>
        <mxCell id="Pkom4mgUufGUyZToT8Yp-224" style="edgeStyle=orthogonalEdgeStyle;rounded=0;orthogonalLoop=1;jettySize=auto;html=1;entryX=1;entryY=0.5;entryDx=0;entryDy=0;entryPerimeter=0;" edge="1" parent="Pkom4mgUufGUyZToT8Yp-174" source="Pkom4mgUufGUyZToT8Yp-220" target="Pkom4mgUufGUyZToT8Yp-223">
          <mxGeometry relative="1" as="geometry" />
        </mxCell>
        <mxCell id="Pkom4mgUufGUyZToT8Yp-220" value="根据userinfo生成登录态" style="strokeWidth=2;html=1;shape=mxgraph.flowchart.terminator;whiteSpace=wrap;" vertex="1" parent="Pkom4mgUufGUyZToT8Yp-174">
          <mxGeometry x="350" y="500" width="85" height="30" as="geometry" />
        </mxCell>
        <mxCell id="Pkom4mgUufGUyZToT8Yp-223" value="业务交互" style="strokeWidth=2;html=1;shape=mxgraph.flowchart.terminator;whiteSpace=wrap;" vertex="1" parent="Pkom4mgUufGUyZToT8Yp-174">
          <mxGeometry x="220" y="500" width="85" height="30" as="geometry" />
        </mxCell>
        <mxCell id="Pkom4mgUufGUyZToT8Yp-226" value="&lt;font color=&quot;#ffffff&quot;&gt;结束&lt;/font&gt;&amp;nbsp;" style="strokeWidth=2;html=1;shape=mxgraph.flowchart.start_1;whiteSpace=wrap;fillColor=#060505;" vertex="1" parent="Pkom4mgUufGUyZToT8Yp-174">
          <mxGeometry x="495.88" y="330" width="53.25" height="30" as="geometry" />
        </mxCell>
      </root>
    </mxGraphModel>
  </diagram>
</mxfile>
